<?xml version="1.0" encoding="UTF-8"?>
<svg version="1.1" xmlns="http://www.w3.org/2000/svg" width="2000" height="2000">
<path d="M0 0 C660 0 1320 0 2000 0 C2000 660 2000 1320 2000 2000 C1340 2000 680 2000 0 2000 C0 1340 0 680 0 0 Z " fill="#F9E9E9" transform="translate(0,0)"/>
<path d="M0 0 C1.01114868 0.00273422 1.01114868 0.00273422 2.04272461 0.00552368 C12.53799409 0.05314766 22.44877865 0.61046264 32.625 3.3125 C33.27307617 3.47878906 33.92115234 3.64507813 34.58886719 3.81640625 C49.65397654 7.79447914 60.24056506 15.66863113 68.27758789 29.06762695 C69.80254362 31.89552461 71.25802201 34.74772666 72.6875 37.625 C73.72364376 39.6551085 74.76010004 41.68505753 75.796875 43.71484375 C76.73986726 45.58058569 77.68260254 47.44645755 78.625 49.3125 C82.66565934 57.2530726 86.801803 64.53528987 92.625 71.3125 C93.21023438 72.00730469 93.79546875 72.70210937 94.3984375 73.41796875 C99.79245461 79.61149432 105.59651302 85.41794778 111.375 91.25 C112.61781738 92.51239502 112.61781738 92.51239502 113.88574219 93.80029297 C114.68141602 94.59709473 115.47708984 95.39389648 116.296875 96.21484375 C117.0094043 96.93148193 117.72193359 97.64812012 118.45605469 98.38647461 C128.02963951 106.88782656 140.31470636 106.45690839 152.40795898 106.47021484 C153.43538208 106.47529556 154.46280518 106.48037628 155.5213623 106.48561096 C157.73491526 106.49624514 159.9484785 106.50489207 162.16204643 106.51173019 C165.67343963 106.52361467 169.18471503 106.54308943 172.69606018 106.56484985 C182.6737168 106.62615938 192.65135787 106.68049718 202.62915039 106.71386719 C208.74863668 106.73487621 214.86790154 106.77022087 220.98726082 106.81462479 C223.30870005 106.82872525 225.63017838 106.83749367 227.95165825 106.84067917 C231.20555522 106.84561882 234.45886917 106.86885316 237.71264648 106.89599609 C238.65791702 106.89298996 239.60318756 106.88998383 240.57710266 106.8868866 C251.22935809 107.01803799 261.65640062 109.39602812 269.4140625 117.0859375 C274.38003029 122.66382549 275.16450361 127.18341755 275.08984375 134.6328125 C273.57753191 146.60422217 265.28041752 157.04700961 256.0625 164.33984375 C241.15650849 174.58771291 225.62427152 173.97169214 208.21875 174.0625 C205.64529335 174.08768479 203.07184745 174.11398979 200.49841309 174.14135742 C195.12248391 174.19401659 189.74671163 174.23297409 184.37060547 174.26123047 C178.18938601 174.29397859 172.00894895 174.35561871 165.82812834 174.43213081 C159.83800593 174.50536268 153.84794465 174.55520705 147.85749817 174.59558105 C145.32829873 174.61502736 142.79913795 174.64055554 140.27006531 174.67248535 C123.2212863 174.87395138 110.06157896 174.38055907 95.3125 165.0625 C94.56033203 164.60359375 93.80816406 164.1446875 93.03320312 163.671875 C91.22264314 162.564781 89.42257331 161.44055798 87.625 160.3125 C87.62722061 161.09779083 87.62944122 161.88308167 87.63172913 162.69216919 C87.65211941 170.24692123 87.66716529 177.80165918 87.67681217 185.35643196 C87.68193902 189.23649432 87.68884006 193.11653319 87.70043945 196.99658203 C87.71164497 200.77032562 87.7173525 204.54404726 87.71987724 208.31780624 C87.72166624 209.72763285 87.72514889 211.13745885 87.73073006 212.54727554 C87.78857571 227.82701375 87.13468836 243.02184905 86.625 258.3125 C29.865 258.3125 -26.895 258.3125 -85.375 258.3125 C-85.57651517 208.30091265 -85.57651517 208.30091265 -85.61914062 187.2890625 C-85.6487696 172.80036536 -85.68353697 158.31181398 -85.75219727 143.82324219 C-85.80218578 133.26968457 -85.83432737 122.71624559 -85.84544247 112.16257286 C-85.8519351 106.57948486 -85.86708959 100.99673611 -85.90365028 95.41375732 C-85.93785415 90.14748469 -85.94800412 84.88168766 -85.94053841 79.61531448 C-85.94190213 77.69339021 -85.95168797 75.77144827 -85.97102737 73.84962082 C-86.17577101 52.4339754 -80.58278033 34.11995621 -65.375 18.3125 C-47.45072889 2.51438117 -22.97935157 -0.09934682 0 0 Z " fill="#D43A3A" transform="translate(781.375,676.6875)"/>
<path d="M0 0 C0.8853241 -0.0065712 1.77064819 -0.0131424 2.68280029 -0.01991272 C5.60762631 -0.03959094 8.53240096 -0.05129968 11.45727539 -0.0612793 C12.96322864 -0.06739259 12.96322864 -0.06739259 14.49960518 -0.07362938 C19.81955889 -0.09447253 25.13948698 -0.10877863 30.45947266 -0.11816406 C35.92302396 -0.1291903 41.38616372 -0.16355153 46.84957027 -0.20333576 C51.07669265 -0.22963663 55.30371924 -0.23786807 59.53091621 -0.24144554 C61.54291101 -0.24628125 63.5549024 -0.25780778 65.56681633 -0.27648354 C85.19285966 -0.4472574 101.82318823 2.41257636 116.57055664 16.4309082 C128.83166783 29.65109404 132.44328601 44.50684481 132.34448242 62.05029297 C132.34391728 63.43091321 132.34423688 64.81153404 132.34536743 66.19215393 C132.34593791 69.91469633 132.33423334 73.63710811 132.32021952 77.35962033 C132.307661 81.25934758 132.30653764 85.15907828 132.3041687 89.05882263 C132.29796891 96.43215597 132.28157855 103.80542953 132.26146972 111.17873663 C132.23906383 119.57780976 132.22810553 127.97688584 132.21807885 136.37598145 C132.19721088 153.64302873 132.16055355 170.90999373 132.11743164 188.17700195 C123.20743164 188.17700195 114.29743164 188.17700195 105.11743164 188.17700195 C105.11743164 170.35700195 105.11743164 152.53700195 105.11743164 134.17700195 C60.89743164 134.17700195 16.67743164 134.17700195 -28.88256836 134.17700195 C-28.88256836 151.99700195 -28.88256836 169.81700195 -28.88256836 188.17700195 C-37.79256836 188.17700195 -46.70256836 188.17700195 -55.88256836 188.17700195 C-55.97309551 170.03466458 -56.04668176 151.89252199 -56.08981705 133.75002098 C-56.1103838 125.32488251 -56.13839078 116.89989503 -56.18432617 108.47485352 C-56.22437533 101.12586376 -56.25004389 93.77698343 -56.25892234 86.42788756 C-56.26410673 82.54173639 -56.27616665 78.65589809 -56.30548859 74.76984787 C-56.33294473 71.1008215 -56.34095358 67.43223238 -56.33499908 63.76311302 C-56.33659836 61.79766082 -56.35796126 59.83225458 -56.38024902 57.8669281 C-56.30325161 40.98439879 -50.77680908 27.71287792 -39.28881836 15.49731445 C-28.33191843 4.93173238 -15.03497129 0.04872863 0 0 Z " fill="#030303" transform="translate(420.882568359375,1141.822998046875)"/>
<path d="M0 0 C34.216875 -0.12375 34.216875 -0.12375 69.125 -0.25 C76.30652832 -0.28641602 83.48805664 -0.32283203 90.88720703 -0.36035156 C99.71069336 -0.37841797 99.71069336 -0.37841797 103.85177612 -0.3817749 C106.7212888 -0.38547583 109.59050032 -0.40036146 112.45993042 -0.42230225 C116.13671295 -0.45003757 119.81306679 -0.45791049 123.48994422 -0.4522891 C125.45365104 -0.45400921 127.41731208 -0.47530717 129.3808918 -0.497715 C144.70838007 -0.4270301 159.6159265 4.25925464 171.01953125 14.81640625 C181.3428724 26.19855163 187.3348859 38.62781141 187.265625 53.9921875 C187.26753845 54.93756378 187.2694519 55.88294006 187.27142334 56.85696411 C187.27277897 58.84881864 187.26912616 60.84068219 187.26074219 62.83251953 C187.25005789 65.85860358 187.26064646 68.88409078 187.2734375 71.91015625 C187.27211533 73.85416796 187.26955175 75.7981793 187.265625 77.7421875 C187.26967346 78.63622284 187.27372192 79.53025818 187.27789307 80.4513855 C187.17339241 94.66764759 182.04390269 108.28368347 172.125 118.625 C167.43653026 122.88529899 162.62633345 126.12716564 157 129 C156.20604324 129.44188156 155.41208649 129.88376312 154.59407043 130.33903503 C142.79626165 135.93107482 129.88695092 134.62299269 117.13671875 134.48828125 C114.53213686 134.47894271 111.92754612 134.47183152 109.32295227 134.46684265 C103.19974664 134.4513982 97.07699567 134.41049991 90.95398885 134.3600952 C83.28777303 134.2983777 75.62148096 134.27127942 67.95507812 134.24414062 C54.30303266 134.19566226 40.65197703 134.09546837 27 134 C27 151.82 27 169.64 27 188 C18.09 188 9.18 188 0 188 C0 125.96 0 63.92 0 0 Z " fill="#030202" transform="translate(1053,1142)"/>
<path d="M0 0 C0.65465937 -0.00406073 1.30931874 -0.00812145 1.98381627 -0.01230523 C4.1749041 -0.02224178 6.36534985 -0.01082927 8.55642319 0.00050831 C10.14410218 -0.00223259 11.73177937 -0.00628493 13.31945205 -0.01153535 C17.6803103 -0.0221262 22.04096369 -0.01399067 26.40181303 -0.00278485 C31.10527533 0.00605254 35.80871069 -0.00238491 40.5121727 -0.00864697 C49.7243471 -0.0181388 58.93644322 -0.01153223 68.14861181 0.00061598 C78.86937408 0.01422792 89.59011764 0.0125989 100.31088635 0.01048265 C119.43244126 0.00729236 138.55395892 0.01896399 157.67550278 0.03854847 C176.24582681 0.05756347 194.81610721 0.06463329 213.38644028 0.05905628 C233.59677364 0.05300473 253.80708781 0.05316327 274.01741958 0.06454211 C276.1703515 0.06574945 278.32328343 0.06695543 280.47621536 0.06816006 C281.53558235 0.0687636 282.59494935 0.06936713 283.68641837 0.06998896 C291.16658992 0.07387492 298.64675435 0.07347191 306.12692642 0.07157421 C315.23446919 0.06945681 324.34197365 0.07464198 333.4495056 0.08918776 C338.09982401 0.09645354 342.75008652 0.10049023 347.4004097 0.0959444 C351.65135762 0.09188988 355.90218973 0.0969705 360.15312001 0.10957048 C361.69670492 0.1125161 363.24030064 0.11203994 364.78388289 0.1079274 C366.87067064 0.10286938 368.95706346 0.10994213 371.04382324 0.12025452 C372.20631222 0.12112129 373.3688012 0.12198807 374.56651711 0.12288111 C377.27022934 0.37473011 377.27022934 0.37473011 379.27022934 2.37473011 C379.52419662 4.76572132 379.52419662 4.76572132 379.5290184 7.80246449 C379.53532272 8.9370409 379.54162704 10.07161732 379.54812241 11.24057484 C379.54204971 13.08588795 379.54204971 13.08588795 379.53585434 14.96848011 C379.53776779 16.22608143 379.53968124 17.48368275 379.54165268 18.7793932 C379.54301583 21.44265886 379.5403094 24.10555941 379.53097153 26.76877308 C379.51957686 30.18544405 379.52613682 33.60180083 379.53811646 37.01846027 C379.54707388 40.2726449 379.54080562 43.52679139 379.53585434 46.78098011 C379.5399028 48.01118885 379.54395126 49.24139759 379.54812241 50.50888538 C379.53866592 52.21075001 379.53866592 52.21075001 379.5290184 53.94699574 C379.52742722 54.94912098 379.52583603 55.95124622 379.52419662 56.9837389 C379.27022934 59.37473011 379.27022934 59.37473011 377.27022934 61.37473011 C374.57523048 61.62772977 374.57523048 61.62772977 371.06502724 61.63199902 C370.09519018 61.63725813 370.09519018 61.63725813 369.10576046 61.64262348 C366.91822065 61.65199902 364.7309435 61.64699851 362.54339218 61.64215565 C360.96756685 61.64588885 359.39174337 61.65048904 357.81592286 61.65588629 C353.46906264 61.66817312 349.12227905 61.66784916 344.77540541 61.66549754 C340.09356837 61.66509079 335.41175637 61.67611511 330.72993088 61.68561268 C321.54997718 61.70225603 312.37004916 61.70772378 303.19008164 61.70883743 C295.72880884 61.70978657 288.26754453 61.71389014 280.80627441 61.72023869 C259.66433832 61.73786214 238.52242257 61.74707612 217.38047908 61.74557774 C216.23969237 61.74549783 215.09890566 61.74541791 213.92354965 61.74533558 C212.78137368 61.74525382 211.63919771 61.74517206 210.46241035 61.74508782 C191.95747504 61.74427516 173.45262118 61.76340474 154.94770943 61.79161231 C135.95887328 61.82032961 116.97007687 61.83415316 97.98121846 61.83242476 C87.31576993 61.83176034 76.65040672 61.83727518 65.98497772 61.85878086 C56.90200858 61.87697773 47.81916339 61.88135248 38.73618393 61.86776201 C34.10128229 61.8612241 29.46661855 61.86114469 24.83173943 61.87846851 C20.58761815 61.89416857 16.34392402 61.89136709 12.09981336 61.87390025 C10.56541874 61.87082351 9.0309925 61.87448813 7.49663518 61.8856204 C-1.29204199 61.94515533 -8.56343375 61.98213853 -15.46760762 55.82490385 C-22.65028305 48.63980266 -24.12511785 39.50318336 -24.22977066 29.74973011 C-24.10676856 19.25795576 -21.59194606 13.03116907 -14.70633316 5.10129261 C-10.16590546 1.13514825 -5.93846958 -0.00028089 0 0 Z " fill="#D43A3A" transform="translate(927.7297706604004,873.6252698898315)"/>
<path d="M0 0 C14.89522861 11.10328181 25.53838479 25.07594367 32.3203125 42.453125 C32.71347656 43.38125 33.10664062 44.309375 33.51171875 45.265625 C40.02317369 63.41602205 38.44976905 88.31597665 30.7578125 105.890625 C30.22837036 107.11193115 30.22837036 107.11193115 29.68823242 108.35791016 C20.04374637 129.85279067 3.15145748 145.24261887 -18.3046875 154.390625 C-18.96049805 154.67341309 -19.61630859 154.95620117 -20.29199219 155.24755859 C-38.30231499 162.44903524 -63.8398551 162.74962268 -81.79150391 155.29199219 C-91.22798531 151.09962729 -99.81377439 146.21313746 -107.6796875 139.453125 C-108.34097656 138.93492187 -109.00226562 138.41671875 -109.68359375 137.8828125 C-123.44399019 126.73446783 -132.50264861 109.42509356 -136.6796875 92.453125 C-137.01613281 91.20789063 -137.01613281 91.20789063 -137.359375 89.9375 C-142.46967532 67.67619174 -137.41575754 44.70467304 -125.6796875 25.453125 C-112.05385706 4.32590372 -92.00905987 -8.92923649 -67.6640625 -14.63671875 C-44.87877273 -19.285956 -18.82511627 -13.41376734 0 0 Z " fill="#D43A3A" transform="translate(874.6796875,507.546875)"/>
<path d="M0 0 C18.27375 -0.0825 36.5475 -0.165 55.375 -0.25 C64.00922119 -0.30462402 64.00922119 -0.30462402 72.81787109 -0.36035156 C79.88208008 -0.37841797 79.88208008 -0.37841797 83.19595337 -0.3817749 C85.49554546 -0.38789112 87.79512524 -0.40190513 90.09463501 -0.42230225 C93.59114648 -0.45174917 97.08687848 -0.45561848 100.58349609 -0.45410156 C101.5967716 -0.468494 102.61004711 -0.48288643 103.65402794 -0.497715 C112.16672769 -0.44855807 119.46331871 1.43831792 125.875 7.25 C131.05262 12.50567458 133.44143852 18.65813033 133.53100586 25.94642639 C133.52133789 26.79498703 133.51166992 27.64354767 133.50170898 28.51782227 C133.50981346 29.89259232 133.50981346 29.89259232 133.51808167 31.2951355 C133.53051431 34.30256167 133.5141155 37.30902034 133.49609375 40.31640625 C133.49624885 42.41812693 133.49773968 44.5198479 133.50050354 46.62156677 C133.50188504 51.01696484 133.48936982 55.41203561 133.46655273 59.80737305 C133.43815161 65.43181352 133.44091365 71.05571125 133.45364285 76.68019199 C133.46060821 81.01686716 133.45280118 85.35341759 133.44038582 89.69007683 C133.43588091 91.76364602 133.43552609 93.83722865 133.43945122 95.91079903 C133.44237226 98.81133462 133.42581411 101.71113035 133.40405273 104.61157227 C133.41080521 105.88744957 133.41080521 105.88744957 133.41769409 107.18910217 C133.31470294 115.48075418 130.56646149 121.07487977 124.97265625 127.203125 C120.09211413 131.64876733 113.96632554 134.12762187 107.38728333 134.12025452 C106.44273946 134.12163201 105.49819559 134.12300951 104.52502918 134.12442875 C102.96733578 134.11903159 102.96733578 134.11903159 101.37817383 134.11352539 C100.26764743 134.11364593 99.15712103 134.11376646 98.01294231 134.11389065 C94.41095173 134.11314305 90.8090126 134.10552173 87.20703125 134.09765625 C84.98612493 134.09618636 82.76521826 134.09516594 80.54431152 134.09460449 C72.30036907 134.0893571 64.05643403 134.07539595 55.8125 134.0625 C28.1853125 134.0315625 28.1853125 134.0315625 0 134 C0 89.78 0 45.56 0 0 Z " fill="#F9E9E9" transform="translate(660,1169)"/>
<path d="M0 0 C0.88897476 -0.00511093 1.77794952 -0.01022186 2.69386292 -0.01548767 C5.61205921 -0.02930657 8.53001719 -0.02843232 11.44824219 -0.02612305 C13.49314459 -0.03001498 15.5380462 -0.03435067 17.58294678 -0.03910828 C21.86310448 -0.04655454 26.14317968 -0.04629134 30.42333984 -0.04101562 C35.88134385 -0.03523158 41.33900733 -0.05213415 46.79695511 -0.0753603 C51.01971377 -0.0901666 55.24239179 -0.09095984 59.46517181 -0.08785057 C61.47600731 -0.0883606 63.4868477 -0.09353784 65.49765778 -0.10366249 C84.74556822 -0.18867202 101.06274725 2.07381263 115.56542969 15.99731445 C125.94582644 26.84278275 131.74511719 39.23686467 131.74511719 54.2746582 C122.83511719 54.2746582 113.92511719 54.2746582 104.74511719 54.2746582 C103.75511719 50.3146582 102.76511719 46.3546582 101.74511719 42.2746582 C97.13271924 34.89482149 92.28390802 30.5975514 83.74511719 28.2746582 C80.75472763 27.98449397 77.78023724 27.97068696 74.77734375 27.96826172 C73.89520203 27.9599382 73.0130603 27.95161469 72.10418701 27.94303894 C69.19799335 27.91901324 66.29202453 27.91017538 63.38574219 27.90356445 C61.35561051 27.89459165 59.32547949 27.88546969 57.29534912 27.87620544 C53.04193519 27.85973249 48.7885998 27.85201856 44.53515625 27.84912109 C39.10361536 27.84374273 33.67282007 27.80607752 28.24148941 27.76037693 C24.04796704 27.73052944 19.85462244 27.72339584 15.66100311 27.72239494 C13.65965108 27.71820703 11.65829781 27.70583056 9.65705109 27.6848774 C-6.67352091 27.52180704 -6.67352091 27.52180704 -20.69238281 35.30200195 C-21.20800781 35.93235352 -21.72363281 36.56270508 -22.25488281 37.2121582 C-22.79113281 37.83993164 -23.32738281 38.46770508 -23.87988281 39.11450195 C-28.20967191 45.91669904 -27.93668335 53.49513922 -27.25488281 61.2746582 C-25.61184384 68.36676316 -21.36794949 73.41903118 -15.25488281 77.2746582 C-9.24493425 79.92246899 -4.45012509 80.70426492 2.07592773 80.64355469 C3.42161079 80.64920441 3.42161079 80.64920441 4.79447937 80.65496826 C6.73031765 80.66137181 8.66618741 80.66109804 10.60202599 80.65478325 C13.67709994 80.64561703 16.75157129 80.65596152 19.82661438 80.67140198 C28.56530893 80.7113384 37.30395391 80.71271286 46.04272461 80.71044922 C51.40132518 80.71039782 56.75960118 80.72971536 62.11811256 80.75978279 C65.12752247 80.77051371 68.13628734 80.75853222 71.14567566 80.74595642 C88.203282 80.7793908 103.12730704 83.89005945 116.05761719 96.0246582 C127.01785146 107.82798742 132.10206378 121.02797222 131.88574219 136.98168945 C131.25568695 151.73548292 124.4020856 164.2297454 113.74511719 174.2746582 C102.69520467 184.33797139 90.08077918 188.58141343 75.31665039 188.56518555 C74.42098862 188.57190277 73.52532684 188.57862 72.6025238 188.58554077 C69.6669242 188.60440285 66.73155473 188.60843922 63.79589844 188.6105957 C61.73479624 188.61703265 59.67369494 188.62376166 57.6125946 188.63076782 C53.29973231 188.64271178 48.98694992 188.6464517 44.67407227 188.64526367 C39.18146117 188.64506085 33.68936957 188.67233867 28.19688129 188.70680809 C23.94058436 188.7291848 19.68441023 188.7330979 15.42806053 188.73204422 C13.40491131 188.73438493 11.3817579 188.74312082 9.35866737 188.75870895 C-10.42378985 188.89684882 -25.90285307 185.84428672 -40.86035156 171.8996582 C-50.90247523 160.89100061 -55.25488281 148.95843421 -55.25488281 134.2746582 C-46.34488281 134.2746582 -37.43488281 134.2746582 -28.25488281 134.2746582 C-27.92488281 137.2446582 -27.59488281 140.2146582 -27.25488281 143.2746582 C-24.50374828 150.31165107 -18.80844311 155.46526129 -12.1960144 158.83216858 C-7.84900316 160.65473793 -3.82001687 160.70427613 0.84228516 160.67871094 C1.7261792 160.68557419 2.61007324 160.69243744 3.52075195 160.69950867 C6.42643555 160.71772612 9.33157653 160.71394597 12.23730469 160.70825195 C14.26840387 160.71281655 16.29950151 160.71812295 18.33059692 160.72413635 C22.58227828 160.73305784 26.8337717 160.73065568 31.08544922 160.72070312 C36.51810774 160.70922167 41.95011546 160.72941749 47.38268852 160.75862026 C51.57618288 160.77701996 55.76952241 160.77668216 59.96304703 160.77098274 C61.96520017 160.77082995 63.96736408 160.7768391 65.96947861 160.78927422 C68.77644691 160.80425168 71.58222748 160.79345738 74.38916016 160.77636719 C75.2060733 160.78603516 76.02298645 160.79570313 76.86465454 160.80566406 C85.05419801 160.70192701 92.24389427 157.63001945 98.23730469 152.01293945 C103.69075627 145.72592921 104.45842181 138.84670292 104.18652344 130.71606445 C103.27936388 123.64343112 100.5263822 118.36173298 94.99511719 113.8371582 C88.22420027 108.90616436 80.35520134 107.83105352 72.20898438 107.92163086 C71.30196274 107.91947067 70.3949411 107.91731049 69.46043396 107.91508484 C67.50604967 107.91201566 65.55164579 107.91555068 63.59728241 107.92509842 C60.49272496 107.93894037 57.38879941 107.93233734 54.28424072 107.92025757 C45.46272504 107.8894461 36.64136011 107.89410601 27.81982422 107.91430664 C22.40815737 107.92528602 16.99696627 107.91190327 11.5853653 107.88441086 C9.5362909 107.87900747 7.48716781 107.88293806 5.43813324 107.89680862 C-10.36982513 108.00256522 -22.35449552 106.22638554 -35.25488281 96.2746582 C-35.94195313 95.76290039 -36.62902344 95.25114258 -37.33691406 94.72387695 C-43.07822086 90.12424493 -46.77715224 84.71521264 -50.25488281 78.2746582 C-51.02058594 76.87666992 -51.02058594 76.87666992 -51.80175781 75.45043945 C-57.28947863 63.65800566 -57.5865407 48.30612881 -53.19238281 36.0871582 C-52.27421333 34.12001855 -51.29588885 32.1796464 -50.25488281 30.2746582 C-49.74699219 29.31430664 -49.23910156 28.35395508 -48.71582031 27.36450195 C-40.98498422 14.04621323 -28.3385907 5.49371333 -13.69467163 1.24066162 C-9.09889281 0.1136337 -4.71397754 -0.01420734 0 0 Z " fill="#020202" transform="translate(897.2548828125,1141.725341796875)"/>
<path d="M0 0 C34.3096875 -0.0928125 34.3096875 -0.0928125 69.3125 -0.1875 C76.52134033 -0.21481201 83.73018066 -0.24212402 91.1574707 -0.27026367 C99.99450684 -0.28381348 99.99450684 -0.28381348 104.1381073 -0.28633118 C107.01769517 -0.28911392 109.8971153 -0.30030727 112.7766571 -0.31672668 C116.46088762 -0.33745305 120.14487764 -0.34344621 123.82916105 -0.33921683 C125.80419894 -0.3405135 127.77921084 -0.35652636 129.75417805 -0.37328625 C145.28034388 -0.31939902 160.1044907 4.54851839 171.375 15.5 C182.30654984 26.73156115 187.32065084 40.01125792 187.2746582 55.55200195 C187.27976913 56.46062988 187.28488007 57.36925781 187.29014587 58.30541992 C187.30394624 61.28310902 187.30309213 64.26056414 187.30078125 67.23828125 C187.30467379 69.32659489 187.3090096 71.41490775 187.31376648 73.5032196 C187.32120845 77.87155732 187.32095237 82.23981419 187.31567383 86.6081543 C187.30988594 92.17934801 187.3268038 97.75020854 187.3500185 103.32134724 C187.36482079 107.63246057 187.36561866 111.94349489 187.36250877 116.25462914 C187.36301885 118.30733079 187.36819713 120.36003725 187.37832069 122.412714 C187.46130575 141.5926665 185.38673079 158.25520449 171.47265625 172.75 C161.38283328 181.93126071 147.82050931 188.13257445 134.08378601 188.12025452 C132.90138431 188.12163201 131.7189826 188.12300951 130.50075054 188.12442875 C129.20717034 188.12083064 127.91359015 188.11723253 126.58081055 188.11352539 C125.17847859 188.1132189 123.77614647 188.11335281 122.37381458 188.11389065 C118.62401597 188.11411608 114.87424938 188.10832707 111.12445831 188.10128021 C107.60368246 188.09557841 104.08291434 188.09531672 100.56213379 188.09460449 C90.27058496 188.08936057 79.97904208 188.07539939 69.6875 188.0625 C46.690625 188.041875 23.69375 188.02125 0 188 C0 125.96 0 63.92 0 0 Z M27 27 C27 71.22 27 115.44 27 161 C54.410625 161.12375 54.410625 161.12375 82.375 161.25 C88.13114746 161.28641602 93.88729492 161.32283203 99.81787109 161.36035156 C105.00690746 161.37373465 105.00690746 161.37373465 110.19595337 161.3817749 C112.49554546 161.38789112 114.79512524 161.40190513 117.09463501 161.42230225 C120.59114648 161.45174917 124.08687848 161.45561848 127.58349609 161.45410156 C129.10340936 161.47569021 129.10340936 161.47569021 130.65402794 161.497715 C139.24033022 161.44813305 146.59120786 159.57938427 152.9375 153.5625 C157.56083694 148.47139015 160.10404404 143.89409466 160.14717102 136.96624756 C160.15432632 136.17296555 160.16148163 135.37968353 160.16885376 134.56236267 C160.17154266 133.70099197 160.17423157 132.83962128 160.17700195 131.95214844 C160.18685875 130.58066399 160.18685875 130.58066399 160.19691467 129.18147278 C160.21661532 126.15743931 160.22830303 123.13345543 160.23828125 120.109375 C160.24235678 119.07493507 160.2464323 118.04049515 160.25063133 116.97470856 C160.27147816 111.49957988 160.28578597 106.02447617 160.29516602 100.54931641 C160.30622819 94.9024291 160.34063014 89.25593607 160.38033772 83.60918808 C160.40651576 79.25963624 160.41485892 74.9101782 160.41844749 70.5605545 C160.42331025 68.4794066 160.43491532 66.39826281 160.45348549 64.31719208 C160.47790212 61.39962226 160.47690718 58.48307096 160.4699707 55.56542969 C160.48278076 54.71215591 160.49559082 53.85888214 160.50878906 52.97975159 C160.445689 45.6685182 158.06892731 39.52222773 152.875 34.25 C145.50476028 27.56946051 137.21043749 26.40915862 127.58349609 26.54589844 C125.91644088 26.54517523 125.91644088 26.54517523 124.21570778 26.54443741 C120.65128125 26.5474009 117.08771251 26.57775916 113.5234375 26.609375 C111.30965578 26.61526299 109.09586849 26.61933948 106.88208008 26.62158203 C98.71296795 26.64247418 90.54397537 26.69831933 82.375 26.75 C64.10125 26.8325 45.8275 26.915 27 27 Z " fill="#030202" transform="translate(633,1142)"/>
<path d="M0 0 C0.89072708 -0.00511093 1.78145416 -0.01022186 2.69917297 -0.01548767 C5.61673882 -0.0292829 8.53406576 -0.0284345 11.45166016 -0.02612305 C13.49752895 -0.03001554 15.54339695 -0.03435134 17.58926392 -0.03910828 C21.86764145 -0.04654889 26.14593643 -0.04629492 30.42431641 -0.04101562 C35.8835109 -0.03522429 41.34236575 -0.05215458 46.80150414 -0.0753603 C51.02422024 -0.09015372 55.24685561 -0.09096171 59.46959305 -0.08785057 C61.48125506 -0.08836098 63.49292193 -0.09354548 65.50455856 -0.10366249 C84.31929411 -0.18668333 101.47856077 2.49475311 115.61572266 16.2746582 C121.14808808 22.6843243 125.78388352 29.26334126 128.61572266 37.2746582 C128.95593445 38.11010666 129.29614624 38.94555511 129.64666748 39.80632019 C130.8883203 44.25031034 130.89539481 48.30994942 130.87451172 52.90087891 C130.87976868 54.32891342 130.87976868 54.32891342 130.88513184 55.78579712 C130.8939134 58.92408605 130.88811114 62.06214833 130.88134766 65.20043945 C130.88269567 67.38990828 130.88463733 69.5793768 130.887146 71.7688446 C130.8900927 76.35601656 130.88581537 80.94311056 130.87646484 85.53027344 C130.86509088 91.39436484 130.87161969 97.25827275 130.88360977 103.12235737 C130.89085784 107.64437731 130.88852657 112.1663542 130.88335419 116.68837547 C130.88202479 118.84961151 130.88364041 121.01085151 130.88831329 123.1720829 C130.89342474 126.20157753 130.88560274 129.23078082 130.87451172 132.26025391 C130.87856018 133.14419327 130.88260864 134.02813263 130.88677979 134.93885803 C130.78769891 149.63856771 125.1408926 162.60668589 114.93603516 173.1574707 C108.90912811 178.65676973 102.20109482 182.36908328 94.61572266 185.2746582 C93.91792191 185.54460098 93.22012115 185.81454376 92.50117493 186.09266663 C82.73678037 189.28042912 72.62178107 188.72806428 62.47119141 188.70825195 C60.41294687 188.71282186 58.35470386 188.71812982 56.29646301 188.72413635 C51.99551166 188.73303747 47.69474628 188.73067935 43.39379883 188.72070312 C37.91690965 188.70922927 32.44066678 188.72941644 26.96386242 188.75862026 C22.71613065 188.77708176 18.46855084 188.77666987 14.22078896 188.77098274 C12.20323087 188.77083068 10.18566171 188.77677851 8.16814232 188.78927422 C-11.5503717 188.89420115 -27.12904371 185.85269234 -41.99365234 171.8762207 C-55.78712625 156.86567557 -56.99920178 139.91995709 -56.88037109 120.5480957 C-56.88052645 118.4669286 -56.88202141 116.38576122 -56.88478088 114.30459595 C-56.88615727 109.96603433 -56.87373283 105.62780635 -56.85083008 101.28930664 C-56.82241249 95.75745088 -56.82520288 90.22614694 -56.83792019 84.69425011 C-56.84490821 80.40456513 -56.83705312 76.11500542 -56.82466316 71.82533646 C-56.82018148 69.78660184 -56.81978278 67.74785362 -56.82372856 65.70911789 C-56.84367417 46.34550154 -54.58587102 31.15386206 -40.73193359 16.55981445 C-29.11862658 5.25568034 -16.13466151 -0.04874789 0 0 Z M-25.82823181 39.10826111 C-31.16186181 48.03184062 -30.08684471 58.24129984 -30.01318359 68.27856445 C-30.01401345 70.32779567 -30.01647724 72.37702682 -30.02049255 74.42625427 C-30.02334131 78.70722649 -30.00873821 82.98767284 -29.98120117 87.26855469 C-29.94709877 92.73817237 -29.95315284 98.20685184 -29.97186375 103.67651463 C-29.98246343 107.90349562 -29.97346929 112.13026066 -29.95847893 116.3572216 C-29.95331992 118.37331436 -29.95375102 120.38942988 -29.96002388 122.40551949 C-29.96551294 125.22900547 -29.94498421 128.05117593 -29.91772461 130.87451172 C-29.92425049 131.69606247 -29.93077637 132.51761322 -29.9375 133.36405945 C-29.80468313 141.51019572 -26.79089603 148.77930648 -21.15148926 154.71768188 C-11.63046712 163.10603977 -0.35715532 162.00817991 11.58447266 161.9387207 C13.63130989 161.94209425 15.67814516 161.94695134 17.72497559 161.95321655 C22.00174144 161.96056241 26.27798291 161.94995618 30.5546875 161.92651367 C36.01536557 161.8980276 41.47481463 161.91444385 46.93544769 161.94437599 C51.15819428 161.96251083 55.3806532 161.9566626 59.60340881 161.94373703 C61.61589201 161.9404201 63.62840199 161.94442925 65.64085388 161.9561348 C77.67866484 162.01080063 86.76442868 161.90794436 96.42822266 153.9621582 C102.93673341 145.96598785 104.76223935 140.1108572 104.77685547 129.77172852 C104.78182037 128.92714081 104.78678528 128.0825531 104.79190063 127.21237183 C104.8064723 124.4258339 104.81331624 121.63935293 104.81884766 118.8527832 C104.8246036 116.9085083 104.83036128 114.96423339 104.83612061 113.0199585 C104.84661666 108.94469947 104.85246833 104.86946009 104.85595703 100.79418945 C104.86143611 95.58804667 104.88545761 90.38216616 104.91392899 85.1761055 C104.93261043 81.15935523 104.93776391 77.14266741 104.93929291 73.12587738 C104.94230797 71.20745156 104.95029753 69.28902653 104.96347809 67.37064362 C104.98065262 64.67861841 104.97863062 61.98722471 104.97216797 59.29516602 C104.98599014 58.12118759 104.98599014 58.12118759 105.00009155 56.92349243 C104.9346282 48.15933475 102.46347235 41.36764367 96.44775391 34.99731445 C89.69984045 28.6522615 83.65573828 26.97334843 74.72973633 27 C73.84452805 26.99488907 72.95931976 26.98977814 72.04728699 26.98451233 C69.12601933 26.97063255 66.20498809 26.97157219 63.28369141 26.97387695 C61.247339 26.96998855 59.2109874 26.96565358 57.17463684 26.96089172 C52.90684378 26.95343254 48.63913345 26.95371819 44.37133789 26.95898438 C38.91397458 26.96477226 33.45695139 26.9478629 27.99964428 26.9246397 C23.79334039 26.90987419 19.58711783 26.90903461 15.38079262 26.91214943 C13.36944214 26.91163743 11.35808696 26.9064225 9.3467617 26.89633751 C6.52758382 26.8839387 3.70906075 26.89078593 0.88989258 26.90234375 C0.06624207 26.89470001 -0.75740845 26.88705627 -1.60601807 26.87918091 C-11.88862473 26.97190216 -19.47383751 31.03914529 -25.82823181 39.10826111 Z " fill="#020202" transform="translate(1315.38427734375,1141.725341796875)"/>
<path d="M0 0 C4.10472902 3.00346026 7.96908909 6.94991173 9.5625 11.875 C10.98666741 23.26833926 3.54395641 34.19888208 -1.4453125 44.05078125 C-2.2945076 45.74136909 -2.2945076 45.74136909 -3.16085815 47.46611023 C-4.65634991 50.44241292 -6.155056 53.41704333 -7.65582275 56.39068604 C-10.32007024 61.67057709 -12.97788349 66.95369947 -15.6328125 72.23828125 C-16.21167206 73.39041107 -16.79053162 74.54254089 -17.38693237 75.72958374 C-21.54031189 84.02190732 -25.57396897 92.36564591 -29.55212402 100.74317932 C-33.92388242 109.93735069 -38.47770779 119.03564945 -43.0625 128.125 C-44.64063387 131.25390127 -46.21622256 134.38405917 -47.7890625 137.515625 C-48.172332 138.27658478 -48.5556015 139.03754456 -48.95048523 139.82156372 C-50.98821751 143.89068966 -52.96455986 147.98008241 -54.87036133 152.11279297 C-55.2688327 152.97346375 -55.66730408 153.83413452 -56.07785034 154.72088623 C-56.83524844 156.36563177 -57.58464704 158.01409401 -58.32449341 159.66680908 C-61.31590409 166.16271944 -64.95901184 170.63575592 -71.4375 173.875 C-73.38768012 173.97739519 -75.34139909 174.01450858 -77.29425049 174.02217102 C-78.54203781 174.02932632 -79.78982513 174.03648163 -81.07542419 174.04385376 C-82.46597265 174.04669416 -83.85652138 174.04940588 -85.24707031 174.05200195 C-86.70559349 174.05826567 -88.16411507 174.06491238 -89.62263489 174.07191467 C-93.59179544 174.08933403 -97.56094393 174.09987919 -101.53013325 174.1081202 C-104.00967175 174.11326889 -106.48920651 174.11934471 -108.96874237 174.12563133 C-116.72576663 174.14468691 -124.48278136 174.15891668 -132.23982453 174.1672433 C-141.19545629 174.17701499 -150.15084083 174.20333103 -159.10638547 174.24374419 C-166.02705891 174.27390332 -172.94766149 174.28871201 -179.86839938 174.29202431 C-184.00239697 174.29437524 -188.13613056 174.30334078 -192.27005768 174.32848549 C-196.16070903 174.35176756 -200.05092263 174.35599913 -203.9416256 174.34572411 C-205.36784763 174.34522864 -206.79409122 174.35155225 -208.22024727 174.36528015 C-221.52674372 174.48617502 -221.52674372 174.48617502 -226.4375 169.875 C-230.79536004 165.5481936 -232.60523483 162.25085253 -232.75 156.125 C-232.69299597 150.82362485 -232.14848058 147.87895273 -228.4375 143.875 C-224.04260272 139.77160101 -221.24496844 137.74899671 -215.1857605 137.75474548 C-214.07234283 137.75337082 -212.95892517 137.75199615 -211.81176758 137.75057983 C-210.58466064 137.75417511 -209.35755371 137.75777039 -208.09326172 137.76147461 C-206.16161667 137.76125557 -206.16161667 137.76125557 -204.19094849 137.7610321 C-200.65397577 137.76074451 -197.11703678 137.76663517 -193.58007193 137.77360606 C-189.88583133 137.77984585 -186.19159002 137.7804439 -182.49734497 137.78163147 C-175.49920896 137.78474294 -168.50108852 137.79295385 -161.50295937 137.80298096 C-153.53692402 137.81414781 -145.57088794 137.81965399 -137.60484672 137.82467639 C-121.21572202 137.83513661 -104.826613 137.85273249 -88.4375 137.875 C-88.21961854 136.70769002 -88.21961854 136.70769002 -87.99733543 135.51679802 C-87.42112439 132.79772543 -86.54798213 130.74025025 -85.29541016 128.26611328 C-84.85049225 127.37973175 -84.40557434 126.49335022 -83.94717407 125.58010864 C-83.46187225 124.62812592 -82.97657043 123.67614319 -82.4765625 122.6953125 C-81.97136078 121.69152557 -81.46615906 120.68773865 -80.94564819 119.65353394 C-79.32359092 116.43279753 -77.69352863 113.21620117 -76.0625 110 C-73.94725553 105.81674657 -71.83566255 101.63166698 -69.7265625 97.4453125 C-69.20023224 96.40133301 -68.67390198 95.35735352 -68.13162231 94.28173828 C-64.1006898 86.25968608 -60.20483774 78.17880433 -56.35272217 70.06967163 C-52.12997365 61.19142519 -47.74198145 52.40148691 -43.3125 43.625 C-38.85607942 34.79394612 -34.42135969 25.98134855 -30.3815918 16.94970703 C-24.23896678 3.23365601 -15.86729845 -5.19293404 0 0 Z " fill="#D43A3A" transform="translate(1298.4375,676.125)"/>
<path d="M0 0 C1.31861275 -0.01511375 1.31861275 -0.01511375 2.66386414 -0.03053284 C5.55509347 -0.05890666 8.44579849 -0.06488459 11.3371582 -0.06811523 C13.36107085 -0.07776567 15.38498143 -0.08785883 17.40888977 -0.09837341 C21.64796799 -0.11630981 25.88686309 -0.1218972 30.12597656 -0.12011719 C35.53167944 -0.11981294 40.93619463 -0.16071824 46.34161663 -0.21243382 C50.52237735 -0.24595956 54.70285624 -0.25186974 58.88373756 -0.25028801 C60.87507014 -0.25380544 62.86641179 -0.26694646 64.8576107 -0.29028511 C85.74985521 -0.51219005 85.74985521 -0.51219005 94.95043945 6.43579102 C114.043697 25.90173997 103.95043945 53.68283039 103.95043945 80.43579102 C59.73043945 80.43579102 15.51043945 80.43579102 -30.04956055 80.43579102 C-30.04956055 21.43579102 -30.04956055 21.43579102 -24.04956055 9.43579102 C-16.63152726 2.72423709 -9.89294483 -0.01647787 0 0 Z " fill="#F9E9E9" transform="translate(422.049560546875,1168.564208984375)"/>
<path d="M0 0 C27.7998614 -0.20054405 27.7998614 -0.20054405 39.6796875 -0.24414062 C47.77555952 -0.27399197 55.87115012 -0.30849399 63.96679688 -0.37719727 C70.49607355 -0.43258095 77.0251603 -0.46144992 83.5546608 -0.47438622 C86.04167595 -0.48360139 88.52867507 -0.5015965 91.01556015 -0.52865028 C94.5079683 -0.56512051 97.99913028 -0.56993758 101.49169922 -0.56762695 C103.02272026 -0.59459152 103.02272026 -0.59459152 104.58467102 -0.62210083 C113.45412315 -0.55889742 120.2124861 2.34495919 126.875 8.1875 C134.41842929 16.52961938 134.638503 26.40893293 134.52148438 37.10375977 C134.50006662 39.43026325 134.52135052 41.75366915 134.546875 44.08007812 C134.56950889 55.70110699 133.07023479 65.19426062 125.171875 74.24609375 C118.33286735 79.76896144 112.15938673 80.57260833 103.53515625 80.45410156 C102.41232742 80.45468567 101.2894986 80.45526978 100.13264465 80.45587158 C96.44227576 80.4530975 92.75272682 80.42203583 89.0625 80.390625 C86.49560996 80.38316025 83.9287142 80.37746842 81.36181641 80.37347412 C75.30934016 80.35979162 69.25719944 80.32830585 63.20484924 80.28807616 C55.63271604 80.23884527 48.06053473 80.21705503 40.48828125 80.1953125 C26.99196078 80.1564396 13.49627593 80.07629804 0 80 C0 53.6 0 27.2 0 0 Z " fill="#F9E9E9" transform="translate(1080,1169)"/>
<path d="M0 0 C61.71 0 123.42 0 187 0 C187 8.91 187 17.82 187 27 C160.6 27 134.2 27 107 27 C107 80.13 107 133.26 107 188 C98.09 188 89.18 188 80 188 C80 134.87 80 81.74 80 27 C53.6 27 27.2 27 0 27 C0 18.09 0 9.18 0 0 Z " fill="#030202" transform="translate(1452,1142)"/>
<path d="M0 0 C1.51412476 -0.02078613 1.51412476 -0.02078613 3.05883789 -0.04199219 C11.79634733 0.01471097 11.79634733 0.01471097 15.8125 3.375 C17.93988138 6.08924521 18.74159561 7.8989277 19.25 11.3125 C18.57907141 16.00900011 16.46040511 18.9729517 12.875 22.0234375 C8.17763543 24.09650911 3.57919057 23.77650756 -1.5 23.8125 C-21.74851899 24.31590806 -40.95274567 28.13702614 -60.1875 34.375 C-60.89277832 34.59881348 -61.59805664 34.82262695 -62.32470703 35.05322266 C-84.91886063 42.35555712 -104.86628247 55.62550189 -121.81103516 72.04980469 C-122.97424126 73.16968456 -124.16226283 74.26370269 -125.35546875 75.3515625 C-151.41799167 99.74823344 -167.84835195 139.97358539 -171.97338867 174.85498047 C-172.72995577 180.51993411 -174.23778218 185.05736457 -178.9375 188.75 C-182.41744329 189.71665091 -185.651348 190.06051123 -189.1875 189.375 C-192.20839981 187.6274257 -194.60358883 185.54282234 -196.1875 182.375 C-199.86800447 145.42839746 -175.85548297 99.98354031 -154.125 72 C-136.83422918 51.22261284 -117.25394461 34.83609626 -93.1875 22.375 C-92.5284668 22.02985352 -91.86943359 21.68470703 -91.19042969 21.32910156 C-79.33024761 15.19452463 -67.01317755 11.01871346 -54.1875 7.375 C-53.44532227 7.16359375 -52.70314453 6.9521875 -51.93847656 6.734375 C-35.05070553 2.05605939 -17.48918997 0.14421872 0 0 Z " fill="#D43B3B" transform="translate(1173.1875,533.625)"/>
<path d="M0 0 C8.91 0 17.82 0 27 0 C27 62.04 27 124.08 27 188 C18.09 188 9.18 188 0 188 C0 125.96 0 63.92 0 0 Z " fill="#050404" transform="translate(579,1142)"/>
<path d="M0 0 C1.77383057 -0.03915527 1.77383057 -0.03915527 3.58349609 -0.07910156 C10.00109168 -0.09194226 14.18378186 -0.06571639 19 4.375 C21.1633006 7.11518076 21.92352448 8.86152151 22.4375 12.3125 C21.87672496 16.23792527 20.49711051 18.32297605 18 21.375 C14.93055826 23.31402795 12.4845745 23.64310863 8.88671875 23.71875 C7.39724731 23.76080566 7.39724731 23.76080566 5.87768555 23.80371094 C4.82492432 23.82723633 3.77216309 23.85076172 2.6875 23.875 C-24.8592172 24.80011451 -50.85935041 30.23095646 -73 47.375 C-73.80953125 48.00019531 -74.6190625 48.62539063 -75.453125 49.26953125 C-97.14520833 67.28306199 -108.1588694 97.2403432 -111.37109375 124.52734375 C-111.99602708 129.32708945 -112.57277726 132.60671769 -116.125 136.0625 C-120.20687457 138.99634735 -123.07916784 139.16868261 -128 138.375 C-131.587621 136.19123069 -133.37948023 134.19428669 -135 130.375 C-137.36370979 102.48322449 -123.32660627 68.7957949 -106 47.375 C-103.09130167 43.94999494 -100.07943924 40.64656112 -97 37.375 C-96.41089844 36.70984375 -95.82179688 36.0446875 -95.21484375 35.359375 C-77.74526556 16.46919375 -52.49420859 7.50362298 -28 2.375 C-26.39125 2.03082031 -26.39125 2.03082031 -24.75 1.6796875 C-16.54529876 0.22335303 -8.31620617 0.10787402 0 0 Z " fill="#D43C3C" transform="translate(1169,590.625)"/>
<path d="M0 0 C7.63125 -0.061875 15.2625 -0.12375 23.125 -0.1875 C25.52410645 -0.21481201 27.92321289 -0.24212402 30.39501953 -0.27026367 C32.30761207 -0.27902979 34.22021023 -0.28667343 36.1328125 -0.29296875 C37.60899048 -0.3159906 37.60899048 -0.3159906 39.11499023 -0.33947754 C45.26226457 -0.34181491 49.93918441 0.1427541 54.64453125 4.53515625 C59.21174543 10.5076671 59.77288139 14.52212161 59 22 C57.94058187 24.9654455 56.63927718 27.28494718 55 30 C55.66 30.7425 56.32 31.485 57 32.25 C60.17433169 37.01149754 59.74510711 42.52082853 59 48 C56.84062362 52.47870656 54.07047061 55.18198188 50 58 C47.12037166 58.95987611 45.33372559 59.12153814 42.3449707 59.11352539 C41.39110474 59.11340454 40.43723877 59.11328369 39.45446777 59.11315918 C37.95526794 59.10548523 37.95526794 59.10548523 36.42578125 59.09765625 C35.50486694 59.09664917 34.58395264 59.09564209 33.63513184 59.09460449 C30.1942419 59.08937152 26.7533697 59.07541026 23.3125 59.0625 C15.619375 59.041875 7.92625 59.02125 0 59 C0 39.53 0 20.06 0 0 Z " fill="#030303" transform="translate(548,1455)"/>
<path d="M0 0 C0.7527269 -0.00145523 1.5054538 -0.00291046 2.2809906 -0.00440979 C3.8617645 -0.00275992 5.44255601 0.00869851 7.02319336 0.02954102 C9.43087488 0.05856098 11.83635821 0.05011911 14.24414062 0.03710938 C15.78777102 0.04334633 17.33139453 0.05173694 18.875 0.0625 C19.94398277 0.05809654 19.94398277 0.05809654 21.03456116 0.05360413 C26.54580061 0.1567584 30.6543437 1.45129286 34.734375 5.21484375 C35.21261719 5.80265625 35.69085937 6.39046875 36.18359375 6.99609375 C36.92029297 7.8778125 36.92029297 7.8778125 37.671875 8.77734375 C40.28540709 12.52312264 40.04718032 16.42270348 40.07421875 20.796875 C40.07991882 21.5108696 40.0856189 22.2248642 40.0914917 22.960495 C40.10093026 24.47096277 40.10747114 25.98145102 40.11132812 27.49194336 C40.12101504 29.78992161 40.15203981 32.08699789 40.18359375 34.38476562 C40.19012631 35.85546346 40.19537579 37.32616767 40.19921875 38.796875 C40.21156555 39.47833084 40.22391235 40.15978668 40.2366333 40.8618927 C40.20866221 46.92518888 38.41102051 50.75874049 34.43359375 55.24609375 C29.67732676 59.42232818 25.89846587 59.83299001 19.66796875 59.90234375 C18.87134827 59.9137439 18.07472778 59.92514404 17.25396729 59.93688965 C15.5695931 59.95575273 13.88514571 59.96884299 12.20068359 59.9765625 C9.64286983 59.99592887 7.08830641 60.05796873 4.53125 60.12109375 C-10.23492321 60.3166722 -10.23492321 60.3166722 -15.74511719 55.37695312 C-19.51410604 50.2541073 -20.59587602 45.8062966 -20.59765625 39.53515625 C-20.60526978 38.78575775 -20.6128833 38.03635925 -20.62072754 37.26425171 C-20.63148442 35.68596714 -20.63439966 34.10761164 -20.62988281 32.52929688 C-20.62891156 30.13418908 -20.67055315 27.74230148 -20.71484375 25.34765625 C-20.82827348 11.60937781 -20.82827348 11.60937781 -16.88867188 6.01708984 C-11.51940389 1.37633796 -7.03610571 -0.11122997 0 0 Z " fill="#F7E7E7" transform="translate(1390.12890625,1454.50390625)"/>
<path d="M0 0 C2.72981141 2.18384913 3.60397165 3.10207139 4.8125 6.25 C5.15300529 11.13057582 4.47577491 14.43366164 1.375 18.25 C-2.14242745 20.99530923 -4.3252645 21.42396931 -8.74707031 21.84448242 C-25.43934992 23.45980597 -42.50772116 28.46154458 -54.1875 41.25 C-62.94332521 52.1167684 -68.90956551 64.882061 -71.125 78.6875 C-71.75597881 82.01350696 -72.29086776 83.40348546 -74.25 86.3125 C-78.18160063 88.90568339 -81.49433083 89.67139371 -86.1875 89.25 C-89.66711104 87.60509296 -91.51790316 86.31526769 -93.5625 83.0625 C-97.18862636 66.74493138 -87.72519274 48.66821459 -79.24609375 35.15625 C-64.66925977 14.18916759 -44.25766524 3.5437496 -19.65625 -1.32226562 C-12.98751926 -2.47768654 -6.21056359 -3.17485023 0 0 Z " fill="#D43C3C" transform="translate(1180.1875,642.75)"/>
<path d="M0 0 C7.63125 -0.061875 15.2625 -0.12375 23.125 -0.1875 C25.52410645 -0.21481201 27.92321289 -0.24212402 30.39501953 -0.27026367 C32.30761207 -0.27902979 34.22021023 -0.28667343 36.1328125 -0.29296875 C37.60899048 -0.3159906 37.60899048 -0.3159906 39.11499023 -0.33947754 C45.43540252 -0.34188074 50.02439187 0.25520424 54.86328125 4.71875 C55.34152344 5.3065625 55.81976562 5.894375 56.3125 6.5 C57.04919922 7.38171875 57.04919922 7.38171875 57.80078125 8.28125 C60.49784244 12.14674487 60.21723204 16.29461785 60.25 20.8125 C60.270625 21.51181641 60.29125 22.21113281 60.3125 22.93164062 C60.35696767 28.87363338 59.09540971 32.82846642 54.95703125 37.1171875 C53.89548828 37.98730469 53.89548828 37.98730469 52.8125 38.875 C52.09707031 39.47054688 51.38164063 40.06609375 50.64453125 40.6796875 C50.10183594 41.11539062 49.55914063 41.55109375 49 42 C49.7940625 42.72445313 50.588125 43.44890625 51.40625 44.1953125 C52.43828035 45.17105029 53.46948769 46.14765909 54.5 47.125 C55.02464844 47.599375 55.54929687 48.07375 56.08984375 48.5625 C58.82054173 51.18680715 59.95326915 52.54225005 60.34375 56.3671875 C60.2303125 57.23601562 60.116875 58.10484375 60 59 C56.91796875 59.49609375 56.91796875 59.49609375 53 59 C51.11325115 57.27864613 49.67873119 55.37760844 48.11523438 53.359375 C44.01064801 48.12969617 40.16114839 43.77862767 33.52490234 42.14404297 C25.33740048 41.21793125 17.20917713 41.4926913 9 42 C9 47.94 9 53.88 9 60 C6.03 60 3.06 60 0 60 C0 40.2 0 20.4 0 0 Z " fill="#060606" transform="translate(1099,1455)"/>
<path d="M0 0 C1.72644126 -0.02151581 3.45277534 -0.05554252 5.17871094 -0.10253906 C22.44169323 -0.5680763 22.44169323 -0.5680763 28.10107422 4.52197266 C32.66485705 10.75214203 32.88960047 15.79177495 32.7734375 23.2722168 C32.76919266 24.30694122 32.76494781 25.34166565 32.76057434 26.40774536 C32.74383871 29.6987761 32.70619524 32.98918496 32.66796875 36.2800293 C32.65291533 38.51699959 32.63922808 40.75397953 32.62695312 42.9909668 C32.59395197 48.46253162 32.54380343 53.93373602 32.48046875 59.4050293 C29.84046875 59.4050293 27.20046875 59.4050293 24.48046875 59.4050293 C24.48046875 53.7950293 24.48046875 48.1850293 24.48046875 42.4050293 C10.29046875 42.4050293 -3.89953125 42.4050293 -18.51953125 42.4050293 C-18.51953125 48.0150293 -18.51953125 53.6250293 -18.51953125 59.4050293 C-21.15953125 59.4050293 -23.79953125 59.4050293 -26.51953125 59.4050293 C-26.62113055 52.67908664 -26.69108036 45.95334261 -26.73925781 39.22680664 C-26.75934642 36.93962203 -26.78662253 34.65248862 -26.82128906 32.36547852 C-26.86992683 29.07384595 -26.89252804 25.78289372 -26.91015625 22.4909668 C-26.93080139 21.4719931 -26.95144653 20.45301941 -26.97271729 19.40316772 C-26.97460993 13.38588662 -26.52051313 9.98944965 -22.51953125 5.4050293 C-15.52581013 -0.75610598 -8.885142 0.08317219 0 0 Z " fill="#010101" transform="translate(1046.51953125,1454.594970703125)"/>
<path d="M0 0 C7.63125 -0.061875 15.2625 -0.12375 23.125 -0.1875 C25.52410645 -0.21481201 27.92321289 -0.24212402 30.39501953 -0.27026367 C32.30761207 -0.27902979 34.22021023 -0.28667343 36.1328125 -0.29296875 C37.60899048 -0.3159906 37.60899048 -0.3159906 39.11499023 -0.33947754 C45.43540252 -0.34188074 50.02439187 0.25520424 54.86328125 4.71875 C55.34152344 5.3065625 55.81976563 5.894375 56.3125 6.5 C57.04919922 7.38171875 57.04919922 7.38171875 57.80078125 8.28125 C61.68234666 13.84440564 60.45282229 22.51379898 60 29 C58.75844236 33.8881898 56.86641017 36.31040823 52.9375 39.4375 C47.99153734 42.0683312 43.86994273 42.1323007 38.39453125 42.09765625 C37.55532639 42.0962413 36.71612152 42.09482635 35.85148621 42.09336853 C33.17178784 42.08777215 30.4921731 42.07522035 27.8125 42.0625 C25.99544392 42.05748453 24.17838652 42.05292171 22.36132812 42.04882812 C17.90749396 42.03865491 13.45384057 42.0190788 9 42 C9 47.94 9 53.88 9 60 C6.03 60 3.06 60 0 60 C0 40.2 0 20.4 0 0 Z " fill="#070606" transform="translate(390,1455)"/>
<path d="M0 0 C7.63125 -0.061875 15.2625 -0.12375 23.125 -0.1875 C25.52410645 -0.21481201 27.92321289 -0.24212402 30.39501953 -0.27026367 C32.30761207 -0.27902979 34.22021023 -0.28667343 36.1328125 -0.29296875 C37.60899048 -0.3159906 37.60899048 -0.3159906 39.11499023 -0.33947754 C45.2413338 -0.34180695 49.87300615 0.15382841 54.609375 4.46484375 C60.74049523 12.38070788 60.94472965 19.2827807 60 29 C58.1338828 34.30532494 54.68197923 37.91975051 50 41 C46.0523573 42.3158809 42.28910644 42.12300273 38.17578125 42.09765625 C37.31438034 42.0962413 36.45297943 42.09482635 35.56547546 42.09336853 C32.81444831 42.0877714 30.06350256 42.07521946 27.3125 42.0625 C25.4472668 42.05748463 23.58203233 42.05292179 21.71679688 42.04882812 C17.14447466 42.03865384 12.57232845 42.01907787 8 42 C8 47.61 8 53.22 8 59 C5.36 59 2.72 59 0 59 C0 39.53 0 20.06 0 0 Z " fill="#020202" transform="translate(1293,1455)"/>
<path d="M0 0 C6.80745305 3.84204425 11.96099359 9.40188883 14.3125 16.94140625 C15.94765095 24.63537546 14.57242782 31.14912046 10.75 38 C5.91110569 44.72567803 -0.66693147 48.07961856 -8.76171875 49.4140625 C-15.4905682 49.81546953 -20.75338769 47.81811661 -26.25 44 C-32.52808267 38.35916633 -36.28145951 32.24136735 -36.75 23.6875 C-36.51800599 16.64068203 -34.09045182 11.15539731 -29.3828125 5.92578125 C-20.89306775 -1.95283402 -10.8743248 -4.89923918 0 0 Z " fill="#D43B3B" transform="translate(1178.25,699)"/>
<path d="M0 0 C9 0 9 0 11.390625 1.95703125 C12.31101562 3.37048828 12.31101562 3.37048828 13.25 4.8125 C13.98089844 5.89144531 14.71179688 6.97039062 15.46484375 8.08203125 C16.05821533 9.00169678 16.05821533 9.00169678 16.66357422 9.93994141 C18.7431293 13.1455106 20.90880419 16.29139923 23.06738281 19.4440918 C24.2141492 21.12365214 25.35308685 22.80858966 26.48339844 24.49926758 C27.01094727 25.28325928 27.53849609 26.06725098 28.08203125 26.875 C28.54843018 27.57367187 29.0148291 28.27234375 29.49536133 28.9921875 C31.15629062 31.20855655 33.0027055 33.08560194 35 35 C36.76239909 32.47697307 38.52358288 29.95311501 40.28295898 27.42797852 C41.76321214 25.30613563 43.24711411 23.18683368 44.73461914 21.07006836 C49.31344857 14.55393985 49.31344857 14.55393985 53.52734375 7.80078125 C54.15769531 6.73214844 54.78804687 5.66351562 55.4375 4.5625 C55.93121094 3.65628906 56.42492187 2.75007813 56.93359375 1.81640625 C59 0 59 0 68 0 C68 19.47 68 38.94 68 59 C65.36 59 62.72 59 60 59 C59.505 38.21 59.505 38.21 59 17 C46.82365036 34.38006848 46.82365036 34.38006848 35 52 C30.78789705 48.23773329 27.87855277 43.65253164 24.75 39 C24.21503906 38.21238281 23.68007813 37.42476562 23.12890625 36.61328125 C18.71405903 30.10111944 14.36423017 23.54634525 10 17 C9.67 31.19 9.34 45.38 9 60 C6.03 60 3.06 60 0 60 C0 40.2 0 20.4 0 0 Z " fill="#070606" transform="translate(931,1455)"/>
<path d="M0 0 C1.73320991 -0.01651756 3.46635288 -0.04375214 5.19921875 -0.08203125 C7.70600502 -0.13709388 10.21119442 -0.1587205 12.71850586 -0.17333984 C13.48543259 -0.19600922 14.25235931 -0.21867859 15.04252625 -0.24203491 C20.72974937 -0.21994558 24.32644154 1.37997114 28.42553711 5.35009766 C31.31395516 9.08125438 33.00895222 12.536923 32.42553711 17.35009766 C29.45553711 17.35009766 26.48553711 17.35009766 23.42553711 17.35009766 C23.17803711 16.40134766 22.93053711 15.45259766 22.67553711 14.47509766 C21.75739608 11.36080384 21.75739608 11.36080384 19.77099609 10.17578125 C14.93627721 8.47379111 9.65338597 8.97829743 4.58105469 8.97949219 C2.49778521 8.97511812 0.41663535 8.9387721 -1.66625977 8.90087891 C-3.64529297 8.89507813 -3.64529297 8.89507813 -5.66430664 8.88916016 C-6.86949951 8.88094238 -8.07469238 8.87272461 -9.31640625 8.86425781 C-13.20992838 9.44485797 -14.86607179 10.53010135 -17.57446289 13.35009766 C-18.19633308 17.21951216 -18.31893019 19.31556469 -15.99731445 22.54174805 C-12.65525067 25.03617231 -10.38822932 24.81806289 -6.24633789 24.78369141 C-4.79190978 24.7933033 -3.33748272 24.80307401 -1.88305664 24.81298828 C0.3922981 24.80442328 2.6673664 24.78767773 4.94262695 24.76538086 C21.46386148 24.6557664 21.46386148 24.6557664 27.42553711 30.35009766 C31.59973768 34.95242137 32.78533475 37.80361839 32.70678711 43.90087891 C32.09265983 49.24890394 29.71200334 53.12638588 25.86303711 56.78759766 C21.49405581 59.58822669 17.49245043 59.5391038 12.46850586 59.58837891 C11.68792313 59.59645065 10.90734039 59.6045224 10.10310364 59.61283875 C8.45140797 59.62666085 6.79968396 59.63739138 5.14794922 59.64526367 C2.63250076 59.66246456 0.11837134 59.70636372 -2.39672852 59.75048828 C-4.00414076 59.76061707 -5.61156414 59.7691326 -7.21899414 59.77587891 C-8.33960991 59.80214104 -8.33960991 59.80214104 -9.48286438 59.82893372 C-14.68301653 59.80752481 -17.56171831 58.6078102 -21.57446289 55.35009766 C-25.21149658 51.40997783 -27.57446289 47.80457217 -27.57446289 42.35009766 C-24.60446289 42.35009766 -21.63446289 42.35009766 -18.57446289 42.35009766 C-18.12071289 43.29884766 -17.66696289 44.24759766 -17.19946289 45.22509766 C-15.77208035 48.35323444 -15.77208035 48.35323444 -13.57446289 50.35009766 C-9.21129941 50.75043685 -4.83311321 50.67907704 -0.45361328 50.66577148 C1.71951031 50.66262449 3.89125511 50.68601833 6.06420898 50.71142578 C7.45157706 50.7137002 8.83894879 50.71440161 10.22631836 50.71337891 C11.48613525 50.71635986 12.74595215 50.71934082 14.04394531 50.72241211 C17.66051329 50.3242267 19.56283078 49.55884385 22.42553711 47.35009766 C23.17446455 45.19289595 23.17446455 45.19289595 22.98803711 42.85009766 C22.98932617 42.07666016 22.99061523 41.30322266 22.99194336 40.50634766 C22.58958089 38.25154227 22.58958089 38.25154227 20.84594727 36.73413086 C17.50454386 34.82345748 14.96781464 35.01401764 11.13256836 35.04931641 C9.68269404 35.04166866 8.23282396 35.03317779 6.78295898 35.02392578 C4.51625983 35.02612575 2.25042225 35.03744608 -0.01611328 35.06518555 C-15.25334567 35.21017507 -15.25334567 35.21017507 -21.99536133 29.90087891 C-26.03287851 25.93577236 -26.75959838 22.33531454 -27.01196289 16.85009766 C-26.86453367 11.91121868 -25.96106192 9.1028155 -22.57446289 5.35009766 C-15.56112914 -0.82831541 -8.90602007 0.06216824 0 0 Z " fill="#070606" transform="translate(879.574462890625,1454.64990234375)"/>
<path d="M0 0 C10 0 10 0 13.4765625 2.68359375 C14.55370479 3.91116367 15.60206721 5.16440459 16.625 6.4375 C17.81504263 7.8123794 19.00650789 9.1860284 20.19921875 10.55859375 C20.8132959 11.28288574 21.42737305 12.00717773 22.06005859 12.75341797 C25.39629583 16.61700406 28.92428448 20.29797679 32.4375 24 C33.08734863 24.69279053 33.73719727 25.38558105 34.40673828 26.09936523 C37.97713406 29.90213465 41.60137472 33.62786692 45.34399414 37.26171875 C47.36671282 39.38493222 49.16809562 41.71011952 51 44 C51.33 29.48 51.66 14.96 52 0 C54.64 0 57.28 0 60 0 C60 19.47 60 38.94 60 59 C51 59 51 59 48.3984375 57.3125 C47.73070312 56.549375 47.06296875 55.78625 46.375 55 C45.70210937 54.2575 45.02921875 53.515 44.3359375 52.75 C43.56507812 51.8425 42.79421875 50.935 42 50 C37.17846419 44.40592783 32.21177865 38.97846413 27.125 33.625 C21.31182696 27.50346611 15.65059799 21.27844221 10 15 C9.67 29.52 9.34 44.04 9 59 C6.03 59 3.06 59 0 59 C0 39.53 0 20.06 0 0 Z " fill="#060606" transform="translate(1477,1455)"/>
<path d="M0 0 C0.7527269 -0.00145523 1.5054538 -0.00291046 2.2809906 -0.00440979 C3.8617645 -0.00275992 5.44255601 0.00869851 7.02319336 0.02954102 C9.43087488 0.05856098 11.83635821 0.05011911 14.24414062 0.03710938 C15.78777102 0.04334633 17.33139453 0.05173694 18.875 0.0625 C19.94398277 0.05809654 19.94398277 0.05809654 21.03456116 0.05360413 C26.54580061 0.1567584 30.6543437 1.45129286 34.734375 5.21484375 C35.21261719 5.80265625 35.69085937 6.39046875 36.18359375 6.99609375 C36.92029297 7.8778125 36.92029297 7.8778125 37.671875 8.77734375 C40.28540709 12.52312264 40.04718032 16.42270348 40.07421875 20.796875 C40.07991882 21.5108696 40.0856189 22.2248642 40.0914917 22.960495 C40.10093026 24.47096277 40.10747114 25.98145102 40.11132812 27.49194336 C40.12101504 29.78992161 40.15203981 32.08699789 40.18359375 34.38476562 C40.19012631 35.85546346 40.19537579 37.32616767 40.19921875 38.796875 C40.21156555 39.47833084 40.22391235 40.15978668 40.2366333 40.8618927 C40.20866221 46.92518888 38.41102051 50.75874049 34.43359375 55.24609375 C29.67732676 59.42232818 25.89846587 59.83299001 19.66796875 59.90234375 C18.87134827 59.9137439 18.07472778 59.92514404 17.25396729 59.93688965 C15.5695931 59.95575273 13.88514571 59.96884299 12.20068359 59.9765625 C9.64286983 59.99592887 7.08830641 60.05796873 4.53125 60.12109375 C-10.23492321 60.3166722 -10.23492321 60.3166722 -15.74511719 55.37695312 C-19.51410604 50.2541073 -20.59587602 45.8062966 -20.59765625 39.53515625 C-20.60526978 38.78575775 -20.6128833 38.03635925 -20.62072754 37.26425171 C-20.63148442 35.68596714 -20.63439966 34.10761164 -20.62988281 32.52929688 C-20.62891156 30.13418908 -20.67055315 27.74230148 -20.71484375 25.34765625 C-20.82827348 11.60937781 -20.82827348 11.60937781 -16.88867188 6.01708984 C-11.51940389 1.37633796 -7.03610571 -0.11122997 0 0 Z M-11.12890625 13.49609375 C-11.63007661 16.22094755 -11.83335836 18.31235816 -11.79296875 21.02734375 C-11.79775238 21.74088013 -11.80253601 22.4544165 -11.8074646 23.1895752 C-11.81085435 24.69232397 -11.80171633 26.19514741 -11.78076172 27.69775391 C-11.75397408 29.9902885 -11.78053156 32.27792909 -11.8125 34.5703125 C-11.80919573 36.03516699 -11.80278911 37.50001845 -11.79296875 38.96484375 C-11.8030899 39.64518677 -11.81321106 40.32552979 -11.82363892 41.02648926 C-11.73483955 44.65585828 -11.1573417 46.45633574 -9.03076172 49.4296875 C-5.42855641 51.99481166 -3.42943243 52.1149539 0.96484375 52.08984375 C1.63398804 52.08988403 2.30313232 52.08992432 2.99255371 52.08996582 C4.40121908 52.08462654 5.80988529 52.06711133 7.21826172 52.03808594 C9.36519123 51.99620888 11.50898055 51.9970224 13.65625 52.00390625 C22.27081847 52.14565975 22.27081847 52.14565975 29.87109375 48.49609375 C32.11939852 43.9994842 31.22397712 37.51148581 31.27612305 32.52075195 C31.2976987 30.9677913 31.33179772 29.41495213 31.37866211 27.86254883 C31.44575867 25.61875375 31.47313135 23.37746991 31.4921875 21.1328125 C31.52001816 20.44305832 31.54784882 19.75330414 31.57652283 19.04264832 C31.55960034 15.05462211 30.94690366 13.58204643 28.28173828 10.56030273 C24.38428492 8.20146464 22.20251042 7.85267668 17.6796875 7.83203125 C17.01195816 7.82724762 16.34422882 7.82246399 15.65626526 7.8175354 C14.25364812 7.81415271 12.85095037 7.82324089 11.44848633 7.84423828 C9.3095661 7.87108155 7.17587024 7.84442547 5.03710938 7.8125 C3.66795726 7.81580358 2.29880837 7.82220876 0.9296875 7.83203125 C-0.92184937 7.84049072 -0.92184937 7.84049072 -2.81079102 7.84912109 C-7.12859599 8.69101523 -8.57654587 9.93649595 -11.12890625 13.49609375 Z " fill="#070606" transform="translate(1390.12890625,1454.50390625)"/>
<path d="M0 0 C2.97 0 5.94 0 9 0 C9.0093457 1.3725293 9.01869141 2.74505859 9.02832031 4.15917969 C9.06818913 9.25098134 9.13393976 14.3421768 9.20751953 19.43359375 C9.2357471 21.63729059 9.2569527 23.841089 9.27099609 26.04492188 C9.29240047 29.21276932 9.33903898 32.37939308 9.390625 35.546875 C9.39185364 36.53242371 9.39308228 37.51797241 9.39434814 38.53338623 C9.49194742 43.84880264 9.49194742 43.84880264 11.59863281 48.62451172 C14.87502382 50.50120824 17.26313051 50.48566397 21.03125 50.4609375 C22.04064636 50.45956284 22.04064636 50.45956284 23.07043457 50.4581604 C24.48924845 50.45213453 25.9080502 50.43641859 27.32666016 50.41162109 C29.4929922 50.37511808 31.65761124 50.3706019 33.82421875 50.37109375 C41.77419339 50.70570025 41.77419339 50.70570025 49 48 C50.17559215 45.6488157 50.15516463 44.17282086 50.20532227 41.55029297 C50.22526749 40.62948944 50.24521271 39.70868591 50.26576233 38.75997925 C50.28247482 37.76410797 50.29918732 36.76823669 50.31640625 35.7421875 C50.33718735 34.72399933 50.35796844 33.70581116 50.37937927 32.6567688 C50.44489466 29.39624945 50.50376902 26.13564794 50.5625 22.875 C50.60568332 20.66796017 50.64929755 18.46092872 50.69335938 16.25390625 C50.8005781 10.83602225 50.90183996 5.41805539 51 0 C53.97 0 56.94 0 60 0 C60.09926025 6.40457698 60.17165417 12.80870105 60.21972656 19.21386719 C60.23977764 21.39037888 60.26702571 23.56683714 60.30175781 25.74316406 C60.35056212 28.88099393 60.37303438 32.01810835 60.390625 35.15625 C60.41127014 36.12115356 60.43191528 37.08605713 60.45318604 38.0802002 C60.45543427 44.9289375 59.31264129 50.55911536 54.43365479 55.62698364 C48.49160347 60.71240881 39.81989308 59.7478284 32.45507812 59.65185547 C30.00493735 59.62505401 27.55937568 59.65166712 25.109375 59.68359375 C16.89956491 59.70144424 10.45617978 59.64810513 4 54 C0.73838383 49.68624958 -0.12848432 45.74041669 -0.11352539 40.41503906 C-0.11344986 39.51440735 -0.11337433 38.61377563 -0.11329651 37.68585205 C-0.10813522 36.72217712 -0.10297394 35.7585022 -0.09765625 34.765625 C-0.0962413 33.77246277 -0.09482635 32.77930054 -0.09336853 31.75604248 C-0.08777588 28.58733088 -0.0752247 25.41869021 -0.0625 22.25 C-0.05748405 20.10026144 -0.05292131 17.95052177 -0.04882812 15.80078125 C-0.03780885 10.53382688 -0.02054923 5.26692546 0 0 Z " fill="#090909" transform="translate(468,1455)"/>
<path d="M0 0 C0.73053085 -0.00287018 1.46106171 -0.00574036 2.21372986 -0.00869751 C3.74739362 -0.01072594 5.28108398 -0.00528215 6.81469727 0.00732422 C9.14984354 0.02342027 11.48326557 0.00742337 13.81835938 -0.01171875 C15.31641003 -0.00973655 16.81445962 -0.00589336 18.3125 0 C19.0032814 -0.00607269 19.69406281 -0.01214539 20.40577698 -0.0184021 C25.69138641 0.05759976 29.82482754 1.2840637 33.734375 4.93359375 C37.26937444 9.55628532 38.216207 11.58572793 38.08984375 17.3984375 C35.44984375 17.3984375 32.80984375 17.3984375 30.08984375 17.3984375 C29.65671875 16.4496875 29.22359375 15.5009375 28.77734375 14.5234375 C27.29682174 11.19801813 27.29682174 11.19801813 24.08984375 9.3984375 C19.70037589 8.96556133 15.30168342 8.9843747 10.89355469 8.97290039 C8.72866295 8.96101338 6.56663304 8.91183806 4.40234375 8.86132812 C3.01954511 8.85186184 1.63672902 8.84462778 0.25390625 8.83984375 C-0.9995459 8.82638916 -2.25299805 8.81293457 -3.54443359 8.79907227 C-7.90753498 9.57604992 -9.33553239 10.82200396 -11.91015625 14.3984375 C-12.67393 17.78155667 -12.67393 17.78155667 -12.57421875 21.4921875 C-12.57900238 22.16133179 -12.58378601 22.83047607 -12.5887146 23.51989746 C-12.59210281 24.92849084 -12.58297547 26.33716402 -12.56201172 27.74560547 C-12.53521914 29.89339636 -12.56178391 32.03596403 -12.59375 34.18359375 C-12.5904457 35.55730312 -12.58403901 36.93100926 -12.57421875 38.3046875 C-12.56575928 40.16577148 -12.56575928 40.16577148 -12.55712891 42.06445312 C-11.71965406 46.38013482 -10.45449143 47.83575732 -6.91015625 50.3984375 C-3.52703708 51.16221125 -3.52703708 51.16221125 0.18359375 51.0625 C0.85273804 51.06728363 1.52188232 51.07206726 2.21130371 51.07699585 C3.61989709 51.08038406 5.02857027 51.07125672 6.43701172 51.05029297 C8.58480261 51.02350039 10.72737028 51.05006516 12.875 51.08203125 C14.24870937 51.07872695 15.62241551 51.07232026 16.99609375 51.0625 C18.85717773 51.05404053 18.85717773 51.05404053 20.75585938 51.04541016 C24.96889382 50.22785441 26.44052283 48.706426 29.08984375 45.3984375 C29.41984375 44.4084375 29.74984375 43.4184375 30.08984375 42.3984375 C32.72984375 42.3984375 35.36984375 42.3984375 38.08984375 42.3984375 C37.87953075 48.3923579 36.82441261 51.46195169 32.85546875 55.953125 C28.37020039 59.62469423 23.51499553 59.7176638 17.9375 59.734375 C17.15974716 59.7410318 16.38199432 59.7476886 15.58067322 59.75454712 C13.94093174 59.76464087 12.30114946 59.76936516 10.66137695 59.76904297 C8.16353254 59.7734179 5.66745431 59.80977385 3.16992188 59.84765625 C1.57162058 59.85352496 -0.02668904 59.85749399 -1.625 59.859375 C-2.73620461 59.88093155 -2.73620461 59.88093155 -3.86985779 59.90292358 C-9.04048628 59.85774007 -11.92228976 58.64017747 -15.91015625 55.3984375 C-22.07129152 48.40471638 -21.23201336 41.76404825 -21.31518555 32.87890625 C-21.33670135 31.15246499 -21.37072807 29.42613091 -21.41772461 27.70019531 C-21.88253086 10.46431942 -21.88253086 10.46431942 -16.89086914 4.77783203 C-11.44095491 0.98244002 -6.55800737 -0.0578212 0 0 Z " fill="#040303" transform="translate(750.91015625,1454.6015625)"/>
<path d="M0 0 C5.16091265 -0.11508477 10.31733986 -0.21452146 15.47851562 -0.2746582 C17.23225015 -0.29973467 18.98588086 -0.33380495 20.73925781 -0.37719727 C23.26653706 -0.43815604 25.79242981 -0.46627719 28.3203125 -0.48828125 C29.09867462 -0.51408768 29.87703674 -0.5398941 30.6789856 -0.56648254 C34.70445801 -0.56853605 37.26891213 -0.2096444 40.49707031 2.3059082 C43.76618993 5.82470795 43.74827922 7.75849166 43.625 12.5 C43.61726563 13.7890625 43.60953125 15.078125 43.6015625 16.40625 C42.92599961 20.44208024 41.85804024 22.13125549 39 25 C35.77396455 26.61301773 32.25289962 26.12053599 28.7109375 26.09765625 C27.48330185 26.09553383 27.48330185 26.09553383 26.23086548 26.09336853 C23.61220675 26.0877629 20.99363296 26.07520948 18.375 26.0625 C16.60156373 26.05748572 14.82812613 26.05292269 13.0546875 26.04882812 C8.70306581 26.03864174 4.35162818 26.0190675 0 26 C0 17.42 0 8.84 0 0 Z " fill="#F2E2E2" transform="translate(1301,1463)"/>
<path d="M0 0 C1.31162109 0.00257812 2.62324219 0.00515625 3.97460938 0.0078125 C4.98841675 0.02956543 4.98841675 0.02956543 6.02270508 0.05175781 C8.08836941 0.09372005 10.15077672 0.09281196 12.21679688 0.0859375 C23.52610807 0.19719487 23.52610807 0.19719487 28.02734375 3.59375 C30.02734375 6.59375 30.02734375 6.59375 30.02734375 26.59375 C15.83734375 26.59375 1.64734375 26.59375 -12.97265625 26.59375 C-12.97265625 19.66375 -12.97265625 12.73375 -12.97265625 5.59375 C-6.21585022 -0.03692169 -6.21585022 -0.03692169 0 0 Z " fill="#F3E3E3" transform="translate(1040.97265625,1462.40625)"/>
<path d="M0 0 C5.03591769 -0.06898517 10.07018692 -0.12868238 15.10620117 -0.16479492 C16.81817184 -0.1798534 18.53010411 -0.20030455 20.24194336 -0.22631836 C22.70696505 -0.2628319 25.17147535 -0.27975562 27.63671875 -0.29296875 C28.77919319 -0.31619453 28.77919319 -0.31619453 29.94474792 -0.33988953 C34.481983 -0.34131672 37.40386417 0.16742431 41 3 C42.56529043 6.13058086 42.26691314 9.44079008 42.3125 12.875 C42.34150391 13.59558594 42.37050781 14.31617188 42.40039062 15.05859375 C42.44312751 18.62876715 42.32364848 20.5822599 40.10546875 23.4453125 C36.10360364 26.40030752 32.74390178 26.12962957 27.9296875 26.09765625 C26.73534592 26.09553383 26.73534592 26.09553383 25.51687622 26.09336853 C22.9695462 26.08776345 20.42230353 26.07521014 17.875 26.0625 C16.14974085 26.05748565 14.42448033 26.05292263 12.69921875 26.04882812 C8.46608496 26.03864253 4.23314046 26.0190682 0 26 C0 17.42 0 8.84 0 0 Z " fill="#F5E5E5" transform="translate(399,1463)"/>
<path d="M0 0 C5.0539389 -0.0459449 10.10715137 -0.08575997 15.16113281 -0.10986328 C16.87990781 -0.1199127 18.59866575 -0.13355445 20.31738281 -0.15087891 C22.78975641 -0.17517391 25.26190369 -0.18649368 27.734375 -0.1953125 C28.50118591 -0.20563507 29.26799683 -0.21595764 30.05804443 -0.22659302 C36.9509106 -0.22803831 36.9509106 -0.22803831 40 2 C42.47211853 5.70817779 42.36730992 8.6425901 42.375 12.9375 C42.39949219 13.65357422 42.42398437 14.36964844 42.44921875 15.10742188 C42.46896053 18.6576512 42.31011305 20.60119206 40.1015625 23.44140625 C36.10514775 26.40529005 32.74317634 26.12962475 27.9296875 26.09765625 C26.73534592 26.09553383 26.73534592 26.09553383 25.51687622 26.09336853 C22.9695462 26.08776345 20.42230353 26.07521014 17.875 26.0625 C16.14974085 26.05748565 14.42448033 26.05292263 12.69921875 26.04882812 C8.46608496 26.03864253 4.23314046 26.0190682 0 26 C0 17.42 0 8.84 0 0 Z " fill="#F5E5E5" transform="translate(1108,1463)"/>
<path d="M0 0 C19.47 0 38.94 0 59 0 C59 2.64 59 5.28 59 8 C50.75 8 42.5 8 34 8 C34 25.16 34 42.32 34 60 C31.03 60 28.06 60 25 60 C25 42.84 25 25.68 25 8 C16.75 8 8.5 8 0 8 C0 5.36 0 2.72 0 0 Z " fill="#070707" transform="translate(1553,1455)"/>
<path d="M0 0 C19.8 0 39.6 0 60 0 C60 2.64 60 5.28 60 8 C51.42 8 42.84 8 34 8 C34 24.83 34 41.66 34 59 C31.36 59 28.72 59 26 59 C26 42.17 26 25.34 26 8 C17.42 8 8.84 8 0 8 C0 5.36 0 2.72 0 0 Z " fill="#000000" transform="translate(1172,1455)"/>
<path d="M0 0 C2.64 0 5.28 0 8 0 C8 16.83 8 33.66 8 51 C24.83 51 41.66 51 59 51 C59 53.64 59 56.28 59 59 C39.53 59 20.06 59 0 59 C0 39.53 0 20.06 0 0 Z " fill="#000000" transform="translate(627,1455)"/>
<path d="M0 0 C5.16091265 -0.11508477 10.31733986 -0.21452146 15.47851562 -0.2746582 C17.23225015 -0.29973467 18.98588086 -0.33380495 20.73925781 -0.37719727 C23.26653706 -0.43815604 25.79242981 -0.46627719 28.3203125 -0.48828125 C29.09867462 -0.51408768 29.87703674 -0.5398941 30.6789856 -0.56648254 C34.70857891 -0.56853815 37.26966025 -0.20849079 40.49951172 2.31176758 C43 5 43 5 43.6875 8.5 C42.80898236 12.97245346 41.59793417 14.23399865 38 17 C35.05117462 17.665646 32.20955772 17.58473812 29.19921875 17.48828125 C28.36284378 17.48120651 27.52646881 17.47413177 26.66474915 17.46684265 C24.00473948 17.43894985 21.34686861 17.37622481 18.6875 17.3125 C16.87958779 17.28741034 15.07164243 17.26459833 13.26367188 17.24414062 C8.84096992 17.19339829 4.42286589 17.09554919 0 17 C0 11.39 0 5.78 0 0 Z " fill="#F2E3E3" transform="translate(556,1463)"/>
<path d="M0 0 C5.32158846 -0.11496471 10.63885113 -0.21444002 15.96069336 -0.2746582 C17.76976132 -0.2997639 19.57872822 -0.33385595 21.38745117 -0.37719727 C23.99162751 -0.43802579 26.59446031 -0.46624809 29.19921875 -0.48828125 C30.00461594 -0.51408768 30.81001312 -0.5398941 31.63981628 -0.56648254 C35.91583977 -0.56860621 37.51895393 -0.37384397 41.01489258 2.34301758 C43 5 43 5 43.5625 8 C42.87642343 11.65907504 41.57265686 13.35167676 39 16 C35.77396455 17.61301773 32.25289962 17.12053599 28.7109375 17.09765625 C27.48330185 17.09553383 27.48330185 17.09553383 26.23086548 17.09336853 C23.61220675 17.0877629 20.99363296 17.07520948 18.375 17.0625 C16.60156373 17.05748572 14.82812613 17.05292269 13.0546875 17.04882812 C8.70306581 17.03864174 4.35162818 17.0190675 0 17 C0 11.39 0 5.78 0 0 Z " fill="#F4E4E4" transform="translate(556,1489)"/>
<path d="M0 0 C2.97 0 5.94 0 9 0 C9 19.8 9 39.6 9 60 C6.03 60 3.06 60 0 60 C0 40.2 0 20.4 0 0 Z " fill="#0F0E0E" transform="translate(702,1455)"/>
<path d="M0 0 C2.64 0 5.28 0 8 0 C8 19.47 8 38.94 8 59 C5.36 59 2.72 59 0 59 C0 39.53 0 20.06 0 0 Z " fill="#000000" transform="translate(1449,1455)"/>
</svg>
